<svg width="13" height="13" viewBox="0 0 13 13" fill="none" xmlns="http://www.w3.org/2000/svg">
<path d="M9.45209 12.3228C8.84001 12.3228 8.19543 12.1766 7.52918 11.8949C6.87918 11.6187 6.22376 11.2395 5.58459 10.7791C4.95084 10.3133 4.33876 9.79325 3.75918 9.2245C3.18501 8.64492 2.66501 8.03284 2.20459 7.4045C1.73876 6.7545 1.36501 6.1045 1.09959 5.47617C0.817927 4.8045 0.677094 4.1545 0.677094 3.54242C0.677094 3.11992 0.752927 2.71909 0.899177 2.34534C1.05084 1.96075 1.29459 1.60325 1.62501 1.2945C2.04209 0.882835 2.51876 0.677002 3.02793 0.677002C3.23918 0.677002 3.45584 0.725752 3.64001 0.812419C3.85126 0.909919 4.03001 1.05617 4.16001 1.25117L5.41668 3.02242C5.53043 3.1795 5.61709 3.33117 5.67668 3.48284C5.74709 3.64534 5.78501 3.80784 5.78501 3.96492C5.78501 4.17075 5.72543 4.37117 5.61168 4.56075C5.53043 4.707 5.40584 4.86409 5.24876 5.02117L4.88043 5.40575C4.88584 5.422 4.89126 5.43284 4.89668 5.44367C4.96168 5.55742 5.09168 5.75242 5.34084 6.04492C5.60626 6.34825 5.85543 6.6245 6.10459 6.87909C6.42418 7.19325 6.68959 7.44242 6.93876 7.64825C7.24751 7.90825 7.44793 8.03825 7.56709 8.09784L7.55626 8.12492L7.95168 7.73492C8.11959 7.567 8.28209 7.44242 8.43918 7.36117C8.73709 7.177 9.11626 7.1445 9.49543 7.30159C9.63626 7.36117 9.78793 7.44242 9.95043 7.55617L11.7488 8.8345C11.9492 8.96992 12.0954 9.14325 12.1821 9.34909C12.2633 9.55492 12.3013 9.7445 12.3013 9.93409C12.3013 10.1941 12.2417 10.4541 12.1279 10.6978C12.0142 10.9416 11.8733 11.1528 11.6946 11.3478C11.3858 11.6891 11.05 11.9328 10.66 12.0899C10.2863 12.2416 9.88001 12.3228 9.45209 12.3228ZM3.02793 1.4895C2.73001 1.4895 2.45376 1.6195 2.18834 1.8795C1.93918 2.11242 1.76584 2.367 1.65751 2.64325C1.54376 2.92492 1.48959 3.22284 1.48959 3.54242C1.48959 4.04617 1.60876 4.59325 1.84709 5.15659C2.09084 5.73075 2.43209 6.32659 2.86543 6.92242C3.29876 7.51825 3.79168 8.09784 4.33334 8.64492C4.87501 9.18117 5.46001 9.6795 6.06126 10.1183C6.64626 10.5462 7.24751 10.8928 7.84334 11.142C8.76959 11.5374 9.63626 11.6295 10.3513 11.3316C10.6275 11.2178 10.8713 11.0445 11.0933 10.7953C11.2179 10.6599 11.3154 10.5137 11.3967 10.3403C11.4617 10.2049 11.4942 10.0641 11.4942 9.92325C11.4942 9.83659 11.4779 9.74992 11.4346 9.65242C11.4183 9.61992 11.3858 9.56034 11.2829 9.48992L9.48459 8.21159C9.37626 8.13575 9.27876 8.08159 9.18668 8.04367C9.06751 7.99492 9.01876 7.94617 8.83459 8.05992C8.72626 8.11409 8.62876 8.19534 8.52043 8.30367L8.10876 8.70992C7.89751 8.91575 7.57251 8.9645 7.32334 8.87242L7.17709 8.80742C6.95501 8.68825 6.69501 8.50409 6.40793 8.26034C6.14793 8.03825 5.86626 7.77825 5.52501 7.44242C5.25959 7.17159 4.99418 6.8845 4.71793 6.56492C4.46334 6.267 4.27918 6.01242 4.16543 5.80117L4.10043 5.63867C4.06793 5.51409 4.05709 5.44367 4.05709 5.36784C4.05709 5.17284 4.12751 4.9995 4.26293 4.86409L4.66918 4.44159C4.77751 4.33325 4.85876 4.23034 4.91293 4.13825C4.95626 4.06784 4.97251 4.00825 4.97251 3.95409C4.97251 3.91075 4.95626 3.84575 4.92918 3.78075C4.89126 3.69409 4.83168 3.59659 4.75584 3.49367L3.49918 1.717C3.44501 1.64117 3.38001 1.587 3.29876 1.54909C3.21209 1.51117 3.12001 1.4895 3.02793 1.4895ZM7.55626 8.13034L7.46959 8.49867L7.61584 8.1195C7.58876 8.11409 7.56709 8.1195 7.55626 8.13034Z" fill="#706A66"/>
</svg>
