<svg width="13" height="13" viewBox="0 0 13 13" fill="none" xmlns="http://www.w3.org/2000/svg">
<path d="M8.66667 12.3229H4.33333C1.21875 12.3229 1.21875 10.6708 1.21875 9.20833V8.66667C1.21875 7.45875 1.21875 6.09375 3.79167 6.09375C4.43625 6.09375 4.67458 6.25083 5.01042 6.5C5.02667 6.51625 5.04833 6.52708 5.06458 6.54875L5.61708 7.13375C6.08292 7.62667 6.92792 7.62667 7.39375 7.13375L7.94625 6.54875C7.9625 6.5325 7.97875 6.51625 8.00042 6.5C8.33625 6.24542 8.57458 6.09375 9.21917 6.09375C11.7921 6.09375 11.7921 7.45875 11.7921 8.66667V9.20833C11.7813 11.2775 10.7358 12.3229 8.66667 12.3229ZM3.79167 6.90625C2.03125 6.90625 2.03125 7.45875 2.03125 8.66667V9.20833C2.03125 10.6925 2.03125 11.5104 4.33333 11.5104H8.66667C10.2808 11.5104 10.9688 10.8225 10.9688 9.20833V8.66667C10.9688 7.45875 10.9688 6.90625 9.20833 6.90625C8.81833 6.90625 8.73708 6.955 8.50417 7.12833L7.97875 7.68625C7.58875 8.09792 7.06333 8.32542 6.5 8.32542C5.93667 8.32542 5.41125 8.09792 5.02125 7.68625L4.49583 7.12833C4.26292 6.955 4.18167 6.90625 3.79167 6.90625Z" fill="#706A66"/>
<path d="M10.2917 6.90617C10.0696 6.90617 9.88543 6.722 9.88543 6.49992V3.24992C9.88543 2.042 9.88543 1.4895 8.12501 1.4895H4.87501C3.11459 1.4895 3.11459 2.042 3.11459 3.24992V6.49992C3.11459 6.722 2.93043 6.90617 2.70834 6.90617C2.48626 6.90617 2.30209 6.722 2.30209 6.49992V3.24992C2.30209 2.042 2.30209 0.677002 4.87501 0.677002H8.12501C10.6979 0.677002 10.6979 2.042 10.6979 3.24992V6.49992C10.6979 6.722 10.5138 6.90617 10.2917 6.90617Z" fill="#706A66"/>
<path d="M7.51832 5.40576H5.71457C5.49249 5.40576 5.30832 5.2216 5.30832 4.99951C5.30832 4.77743 5.49249 4.59326 5.71457 4.59326H7.51832C7.7404 4.59326 7.92457 4.77743 7.92457 4.99951C7.92457 5.2216 7.74582 5.40576 7.51832 5.40576Z" fill="#706A66"/>
<path d="M7.97335 3.78076H5.26501C5.04293 3.78076 4.85876 3.5966 4.85876 3.37451C4.85876 3.15243 5.04293 2.96826 5.26501 2.96826H7.97335C8.19543 2.96826 8.3796 3.15243 8.3796 3.37451C8.3796 3.5966 8.20085 3.78076 7.97335 3.78076Z" fill="#706A66"/>
</svg>
