<svg width="25" height="25" viewBox="0 0 25 25" fill="none" xmlns="http://www.w3.org/2000/svg">
<path d="M7.25 0H17.75C21.75 0 25 3.21696 25 7.1763V17.5696C25 19.4728 24.2362 21.2981 22.8765 22.644C21.5169 23.9898 19.6728 24.7458 17.75 24.7458H7.25C3.25 24.7458 0 21.5289 0 17.5696V7.1763C0 5.27302 0.763837 3.44771 2.12348 2.10189C3.48311 0.756072 5.32718 0 7.25 0ZM7 2.47459C5.80653 2.47459 4.66193 2.94387 3.81802 3.77921C2.97411 4.61454 2.5 5.7475 2.5 6.92884V17.817C2.5 20.2792 4.5125 22.2713 7 22.2713H18C19.1935 22.2713 20.3381 21.802 21.182 20.9666C22.0259 20.1313 22.5 18.9984 22.5 17.817V6.92884C22.5 4.46663 20.4875 2.47459 18 2.47459H7ZM19.0625 4.33052C19.4769 4.33052 19.8743 4.49347 20.1674 4.78352C20.4604 5.07356 20.625 5.46695 20.625 5.87714C20.625 6.28733 20.4604 6.68072 20.1674 6.97076C19.8743 7.26081 19.4769 7.42376 19.0625 7.42376C18.6481 7.42376 18.2507 7.26081 17.9576 6.97076C17.6646 6.68072 17.5 6.28733 17.5 5.87714C17.5 5.46695 17.6646 5.07356 17.9576 4.78352C18.2507 4.49347 18.6481 4.33052 19.0625 4.33052ZM12.5 6.18646C14.1576 6.18646 15.7473 6.83825 16.9194 7.99844C18.0915 9.15862 18.75 10.7322 18.75 12.3729C18.75 14.0137 18.0915 15.5872 16.9194 16.7474C15.7473 17.9076 14.1576 18.5594 12.5 18.5594C10.8424 18.5594 9.25268 17.9076 8.08058 16.7474C6.90848 15.5872 6.25 14.0137 6.25 12.3729C6.25 10.7322 6.90848 9.15862 8.08058 7.99844C9.25268 6.83825 10.8424 6.18646 12.5 6.18646ZM12.5 8.66105C11.5054 8.66105 10.5516 9.05212 9.84835 9.74823C9.14509 10.4443 8.75 11.3885 8.75 12.3729C8.75 13.3574 9.14509 14.3015 9.84835 14.9976C10.5516 15.6937 11.5054 16.0848 12.5 16.0848C13.4946 16.0848 14.4484 15.6937 15.1517 14.9976C15.8549 14.3015 16.25 13.3574 16.25 12.3729C16.25 11.3885 15.8549 10.4443 15.1517 9.74823C14.4484 9.05212 13.4946 8.66105 12.5 8.66105Z" fill="#706A66"/>
</svg>
