<svg width="19" height="21" viewBox="0 0 19 21" fill="none" xmlns="http://www.w3.org/2000/svg">
<path d="M17.4063 4.96867C16.3679 4.74033 15.4286 4.18891 14.723 3.39356C14.0175 2.5982 13.5821 1.59978 13.4792 0.541585V0.083252H9.88544V14.3228C9.88618 14.9547 9.68809 15.5707 9.31924 16.0837C8.95039 16.5967 8.42948 16.9806 7.8303 17.1811C7.23112 17.3816 6.58405 17.3885 5.98073 17.2008C5.37742 17.0131 4.84846 16.6404 4.46878 16.1353C4.12862 15.6883 3.92033 15.155 3.86746 14.5957C3.81458 14.0365 3.91924 13.4736 4.16959 12.9707C4.41994 12.4679 4.806 12.0451 5.2841 11.7502C5.76221 11.4553 6.31329 11.3 6.87503 11.302C7.1857 11.3002 7.49481 11.3459 7.7917 11.4374V7.79158C7.44621 7.7488 7.09806 7.73139 6.75003 7.7395C5.46806 7.77376 4.2239 8.1811 3.16991 8.91166C2.11591 9.64221 1.29783 10.6643 0.815838 11.8527C0.333844 13.0411 0.208861 14.3442 0.456192 15.6026C0.703524 16.8609 1.31244 18.0198 2.20836 18.9374C3.12658 19.871 4.30158 20.5105 5.58408 20.7747C6.86659 21.0389 8.19869 20.9159 9.41113 20.4214C10.6236 19.9268 11.6616 19.0829 12.3934 17.9971C13.1252 16.9112 13.5176 15.6323 13.5209 14.3228V7.03117C14.9703 8.06653 16.7084 8.62038 18.4896 8.6145V5.07283C18.1397 5.07428 17.7906 5.03937 17.4479 4.96867H17.4063Z" fill="#706A66"/>
</svg>
