<svg width="86" height="54" viewBox="0 0 86 54" fill="none" xmlns="http://www.w3.org/2000/svg">
<line x1="41.5" x2="41.5" y2="40" stroke="#706A66"/>
<path d="M45.32 29.7H45.47C45.61 29.7 45.74 29.64 45.86 29.52C45.98 29.4 46.08 29.26 46.16 29.1C46.26 28.94 46.33 28.77 46.37 28.59C46.41 28.39 46.43 28.21 46.43 28.05V12.06C46.43 11.92 46.41 11.76 46.37 11.58C46.33 11.4 46.27 11.23 46.19 11.07C46.11 10.91 46.01 10.78 45.89 10.68C45.77 10.56 45.63 10.5 45.47 10.5H45.32V10.2H51.11C52.69 10.2 54.11 10.48 55.37 11.04C56.63 11.58 57.69 12.32 58.55 13.26C59.43 14.18 60.1 15.24 60.56 16.44C61.02 17.64 61.25 18.89 61.25 20.19C61.25 21.41 61.03 22.61 60.59 23.79C60.15 24.95 59.49 25.99 58.61 26.91C57.73 27.83 56.63 28.58 55.31 29.16C53.99 29.72 52.46 30 50.72 30H45.32V29.7ZM59.21 20.64C59.21 19.36 58.98 18.15 58.52 17.01C58.06 15.87 57.41 14.88 56.57 14.04C55.75 13.18 54.77 12.5 53.63 12C52.51 11.5 51.29 11.25 49.97 11.25H48.44V28.95H50.03C51.11 28.95 52.19 28.79 53.27 28.47C54.37 28.13 55.36 27.62 56.24 26.94C57.12 26.24 57.83 25.37 58.37 24.33C58.93 23.29 59.21 22.06 59.21 20.64Z" fill="#706A66"/>
<path d="M0.528 50.88H0.588C0.644 50.88 0.696 50.856 0.744 50.808C0.792 50.76 0.832 50.704 0.864 50.64C0.904 50.576 0.932 50.508 0.948 50.436C0.964 50.356 0.972 50.284 0.972 50.22V43.824C0.972 43.768 0.964 43.704 0.948 43.632C0.932 43.56 0.908 43.492 0.876 43.428C0.844 43.364 0.804 43.312 0.756 43.272C0.708 43.224 0.652 43.2 0.588 43.2H0.528V43.08H2.844C3.476 43.08 4.044 43.192 4.548 43.416C5.052 43.632 5.476 43.928 5.82 44.304C6.172 44.672 6.44 45.096 6.624 45.576C6.808 46.056 6.9 46.556 6.9 47.076C6.9 47.564 6.812 48.044 6.636 48.516C6.46 48.98 6.196 49.396 5.844 49.764C5.492 50.132 5.052 50.432 4.524 50.664C3.996 50.888 3.384 51 2.688 51H0.528V50.88ZM6.084 47.256C6.084 46.744 5.992 46.26 5.808 45.804C5.624 45.348 5.364 44.952 5.028 44.616C4.7 44.272 4.308 44 3.852 43.8C3.404 43.6 2.916 43.5 2.388 43.5H1.776V50.58H2.412C2.844 50.58 3.276 50.516 3.708 50.388C4.148 50.252 4.544 50.048 4.896 49.776C5.248 49.496 5.532 49.148 5.748 48.732C5.972 48.316 6.084 47.824 6.084 47.256ZM8.83453 50.88H8.89453C8.95853 50.88 9.01453 50.86 9.06253 50.82C9.11053 50.772 9.15053 50.716 9.18253 50.652C9.22253 50.588 9.25053 50.52 9.26653 50.448C9.29053 50.376 9.30253 50.308 9.30253 50.244V43.824C9.30253 43.768 9.29053 43.704 9.26653 43.632C9.25053 43.56 9.22253 43.492 9.18253 43.428C9.15053 43.364 9.11053 43.312 9.06253 43.272C9.01453 43.224 8.95853 43.2 8.89453 43.2H8.83453V43.08H13.4545V44.196H13.3345C13.3185 44.012 13.2465 43.852 13.1185 43.716C12.9905 43.572 12.7905 43.5 12.5185 43.5H10.1065V46.536H12.0985C12.2825 46.536 12.4345 46.48 12.5545 46.368C12.6825 46.256 12.7465 46.124 12.7465 45.972H12.8665V47.472H12.7465C12.7465 47.328 12.6865 47.204 12.5665 47.1C12.4465 46.996 12.2905 46.944 12.0985 46.944H10.1065V50.58H12.7345C12.8865 50.58 13.0185 50.544 13.1305 50.472C13.2425 50.4 13.3345 50.316 13.4065 50.22C13.4865 50.116 13.5425 50.008 13.5745 49.896C13.6145 49.776 13.6345 49.676 13.6345 49.596H13.7545V51H8.83453V50.88ZM19.3843 43.392C18.7923 43.392 18.2763 43.5 17.8363 43.716C17.4043 43.924 17.0443 44.2 16.7563 44.544C16.4683 44.88 16.2523 45.26 16.1083 45.684C15.9723 46.108 15.9043 46.528 15.9043 46.944C15.9043 47.416 15.9963 47.88 16.1803 48.336C16.3643 48.784 16.6163 49.184 16.9363 49.536C17.2643 49.88 17.6443 50.16 18.0763 50.376C18.5083 50.584 18.9763 50.688 19.4803 50.688C19.6243 50.688 19.7923 50.672 19.9843 50.64C20.1843 50.608 20.3803 50.548 20.5723 50.46C20.7643 50.364 20.9403 50.232 21.1003 50.064C21.2683 49.896 21.3963 49.676 21.4843 49.404H21.6043V50.736C21.4843 50.736 21.3563 50.752 21.2203 50.784C21.0923 50.816 20.9483 50.852 20.7883 50.892C20.5803 50.948 20.3483 51 20.0923 51.048C19.8443 51.096 19.5803 51.12 19.3003 51.12C18.6043 51.12 17.9923 51 17.4643 50.76C16.9363 50.52 16.4963 50.208 16.1443 49.824C15.7923 49.44 15.5283 49.008 15.3523 48.528C15.1763 48.04 15.0883 47.548 15.0883 47.052C15.0883 46.556 15.1763 46.064 15.3523 45.576C15.5283 45.088 15.7963 44.652 16.1563 44.268C16.5163 43.876 16.9683 43.56 17.5123 43.32C18.0563 43.08 18.6963 42.96 19.4323 42.96C19.6963 42.96 19.9323 42.984 20.1403 43.032C20.3563 43.08 20.5483 43.128 20.7163 43.176C20.8363 43.216 20.9443 43.248 21.0403 43.272C21.1443 43.288 21.2443 43.296 21.3403 43.296V44.628H21.2203C21.1723 44.38 21.0843 44.176 20.9563 44.016C20.8283 43.848 20.6763 43.72 20.5003 43.632C20.3323 43.544 20.1483 43.484 19.9483 43.452C19.7563 43.412 19.5683 43.392 19.3843 43.392ZM27.0418 42.96C27.6658 42.96 28.2258 43.072 28.7218 43.296C29.2178 43.512 29.6378 43.808 29.9818 44.184C30.3338 44.552 30.6018 44.984 30.7858 45.48C30.9778 45.968 31.0738 46.48 31.0738 47.016C31.0738 47.616 30.9618 48.168 30.7378 48.672C30.5218 49.176 30.2218 49.608 29.8378 49.968C29.4538 50.328 29.0058 50.612 28.4938 50.82C27.9898 51.02 27.4498 51.12 26.8738 51.12C26.2578 51.12 25.7018 51.008 25.2058 50.784C24.7178 50.56 24.3018 50.264 23.9578 49.896C23.6218 49.528 23.3618 49.104 23.1778 48.624C22.9938 48.144 22.9018 47.644 22.9018 47.124C22.9018 46.612 22.9938 46.108 23.1778 45.612C23.3618 45.108 23.6298 44.66 23.9818 44.268C24.3418 43.876 24.7778 43.56 25.2898 43.32C25.8018 43.08 26.3858 42.96 27.0418 42.96ZM27.0298 50.7C27.5658 50.676 28.0338 50.556 28.4338 50.34C28.8418 50.116 29.1818 49.836 29.4538 49.5C29.7258 49.156 29.9258 48.78 30.0538 48.372C30.1898 47.964 30.2578 47.56 30.2578 47.16C30.2578 46.72 30.1778 46.276 30.0178 45.828C29.8578 45.38 29.6298 44.976 29.3338 44.616C29.0378 44.248 28.6818 43.952 28.2658 43.728C27.8578 43.496 27.3978 43.38 26.8858 43.38C26.3898 43.38 25.9458 43.492 25.5538 43.716C25.1618 43.932 24.8258 44.212 24.5458 44.556C24.2738 44.9 24.0658 45.284 23.9218 45.708C23.7778 46.132 23.7058 46.548 23.7058 46.956C23.7058 47.396 23.7898 47.84 23.9578 48.288C24.1258 48.728 24.3578 49.128 24.6538 49.488C24.9498 49.848 25.2978 50.14 25.6978 50.364C26.1058 50.588 26.5498 50.7 27.0298 50.7ZM34.6587 50.88H34.7187V51H33.0267V50.88H33.0867C33.1427 50.88 33.1947 50.856 33.2427 50.808C33.2907 50.76 33.3307 50.704 33.3627 50.64C33.4027 50.576 33.4307 50.508 33.4467 50.436C33.4627 50.356 33.4707 50.284 33.4707 50.22V43.824C33.4707 43.768 33.4627 43.704 33.4467 43.632C33.4307 43.56 33.4027 43.492 33.3627 43.428C33.3307 43.364 33.2907 43.312 33.2427 43.272C33.1947 43.224 33.1427 43.2 33.0867 43.2H33.0267V43.08H35.1147C35.9147 43.08 36.5307 43.236 36.9627 43.548C37.4027 43.86 37.6227 44.32 37.6227 44.928C37.6227 45.232 37.5707 45.5 37.4667 45.732C37.3707 45.956 37.2387 46.152 37.0707 46.32C36.9027 46.48 36.7027 46.612 36.4707 46.716C36.2467 46.812 36.0067 46.884 35.7507 46.932L36.6147 48.252C36.8227 48.572 37.0347 48.888 37.2507 49.2C37.4667 49.504 37.6787 49.82 37.8867 50.148C37.9427 50.228 38.0027 50.312 38.0667 50.4C38.1387 50.488 38.2107 50.568 38.2827 50.64C38.3627 50.712 38.4427 50.772 38.5227 50.82C38.6107 50.86 38.6987 50.88 38.7867 50.88V51H38.2707C37.9507 51 37.6867 50.924 37.4787 50.772C37.2787 50.612 37.1107 50.428 36.9747 50.22C36.6147 49.692 36.2547 49.156 35.8947 48.612C35.5427 48.068 35.1907 47.532 34.8387 47.004C34.7507 46.996 34.6547 46.988 34.5507 46.98C34.4547 46.964 34.3627 46.948 34.2747 46.932V50.22C34.2747 50.284 34.2827 50.356 34.2987 50.436C34.3147 50.508 34.3387 50.576 34.3707 50.64C34.4107 50.704 34.4507 50.76 34.4907 50.808C34.5387 50.856 34.5947 50.88 34.6587 50.88ZM34.2747 43.488V46.536H34.3347C34.3987 46.544 34.4987 46.552 34.6347 46.56C34.7787 46.56 34.9547 46.56 35.1627 46.56C35.3307 46.56 35.5067 46.536 35.6907 46.488C35.8827 46.432 36.0587 46.344 36.2187 46.224C36.3867 46.096 36.5227 45.932 36.6267 45.732C36.7387 45.532 36.7947 45.28 36.7947 44.976C36.7947 44.672 36.7347 44.424 36.6147 44.232C36.5027 44.04 36.3427 43.888 36.1347 43.776C35.9347 43.664 35.6907 43.588 35.4027 43.548C35.1147 43.508 34.7987 43.488 34.4547 43.488H34.2747ZM44.4124 50.88H44.4724C44.5284 50.88 44.5804 50.856 44.6284 50.808C44.6764 50.76 44.7164 50.704 44.7484 50.64C44.7884 50.576 44.8164 50.508 44.8324 50.436C44.8484 50.356 44.8564 50.284 44.8564 50.22V43.824C44.8564 43.768 44.8484 43.704 44.8324 43.632C44.8164 43.56 44.7924 43.492 44.7604 43.428C44.7284 43.364 44.6884 43.312 44.6404 43.272C44.5924 43.224 44.5364 43.2 44.4724 43.2H44.4124V43.08H46.7284C47.3604 43.08 47.9284 43.192 48.4324 43.416C48.9364 43.632 49.3604 43.928 49.7044 44.304C50.0564 44.672 50.3244 45.096 50.5084 45.576C50.6924 46.056 50.7844 46.556 50.7844 47.076C50.7844 47.564 50.6964 48.044 50.5204 48.516C50.3444 48.98 50.0804 49.396 49.7284 49.764C49.3764 50.132 48.9364 50.432 48.4084 50.664C47.8804 50.888 47.2684 51 46.5724 51H44.4124V50.88ZM49.9684 47.256C49.9684 46.744 49.8764 46.26 49.6924 45.804C49.5084 45.348 49.2484 44.952 48.9124 44.616C48.5844 44.272 48.1924 44 47.7364 43.8C47.2884 43.6 46.8004 43.5 46.2724 43.5H45.6604V50.58H46.2964C46.7284 50.58 47.1604 50.516 47.5924 50.388C48.0324 50.252 48.4284 50.048 48.7804 49.776C49.1324 49.496 49.4164 49.148 49.6324 48.732C49.8564 48.316 49.9684 47.824 49.9684 47.256ZM52.7189 50.88H52.7789C52.8429 50.88 52.8989 50.86 52.9469 50.82C52.9949 50.772 53.0349 50.716 53.0669 50.652C53.1069 50.588 53.1349 50.52 53.1509 50.448C53.1749 50.376 53.1869 50.308 53.1869 50.244V43.824C53.1869 43.768 53.1749 43.704 53.1509 43.632C53.1349 43.56 53.1069 43.492 53.0669 43.428C53.0349 43.364 52.9949 43.312 52.9469 43.272C52.8989 43.224 52.8429 43.2 52.7789 43.2H52.7189V43.08H57.3389V44.196H57.2189C57.2029 44.012 57.1309 43.852 57.0029 43.716C56.8749 43.572 56.6749 43.5 56.4029 43.5H53.9909V46.536H55.9829C56.1669 46.536 56.3189 46.48 56.4389 46.368C56.5669 46.256 56.6309 46.124 56.6309 45.972H56.7509V47.472H56.6309C56.6309 47.328 56.5709 47.204 56.4509 47.1C56.3309 46.996 56.1749 46.944 55.9829 46.944H53.9909V50.58H56.6189C56.7709 50.58 56.9029 50.544 57.0149 50.472C57.1269 50.4 57.2189 50.316 57.2909 50.22C57.3709 50.116 57.4269 50.008 57.4589 49.896C57.4989 49.776 57.5189 49.676 57.5189 49.596H57.6389V51H52.7189V50.88ZM64.3031 48.876C64.3031 49.276 64.2231 49.62 64.0631 49.908C63.9031 50.188 63.6951 50.416 63.4391 50.592C63.1911 50.768 62.9071 50.896 62.5871 50.976C62.2751 51.056 61.9631 51.096 61.6511 51.096C61.3311 51.096 61.0551 51.064 60.8231 51C60.5911 50.936 60.3791 50.876 60.1871 50.82C60.0591 50.78 59.9431 50.748 59.8391 50.724C59.7351 50.692 59.6311 50.676 59.5271 50.676V49.308H59.6471C59.6471 49.612 59.7231 49.856 59.8751 50.04C60.0351 50.216 60.2191 50.352 60.4271 50.448C60.6351 50.544 60.8431 50.608 61.0511 50.64C61.2591 50.664 61.4111 50.676 61.5071 50.676C61.8511 50.676 62.1471 50.628 62.3951 50.532C62.6431 50.428 62.8471 50.296 63.0071 50.136C63.1671 49.968 63.2831 49.784 63.3551 49.584C63.4351 49.384 63.4751 49.18 63.4751 48.972C63.4751 48.708 63.4191 48.488 63.3071 48.312C63.1951 48.128 63.0471 47.968 62.8631 47.832C62.6871 47.696 62.4831 47.58 62.2511 47.484C62.0191 47.388 61.7831 47.292 61.5431 47.196C61.2711 47.092 61.0031 46.984 60.7391 46.872C60.4751 46.76 60.2391 46.624 60.0311 46.464C59.8231 46.296 59.6551 46.1 59.5271 45.876C59.3991 45.644 59.3351 45.36 59.3351 45.024C59.3351 44.672 59.4031 44.368 59.5391 44.112C59.6751 43.848 59.8551 43.632 60.0791 43.464C60.3111 43.296 60.5711 43.172 60.8591 43.092C61.1551 43.004 61.4551 42.96 61.7591 42.96C61.9671 42.96 62.1631 42.976 62.3471 43.008C62.5311 43.032 62.7071 43.064 62.8751 43.104C63.0111 43.136 63.1431 43.164 63.2711 43.188C63.3991 43.204 63.5231 43.212 63.6431 43.212V44.448H63.5231C63.5071 44.032 63.3431 43.752 63.0311 43.608C62.7191 43.456 62.2871 43.38 61.7351 43.38C61.4151 43.38 61.1511 43.436 60.9431 43.548C60.7431 43.652 60.5831 43.784 60.4631 43.944C60.3431 44.096 60.2591 44.264 60.2111 44.448C60.1711 44.624 60.1511 44.78 60.1511 44.916C60.1511 45.14 60.1991 45.332 60.2951 45.492C60.3991 45.652 60.5351 45.792 60.7031 45.912C60.8711 46.032 61.0631 46.14 61.2791 46.236C61.5031 46.332 61.7351 46.424 61.9751 46.512C62.2471 46.616 62.5231 46.728 62.8031 46.848C63.0831 46.968 63.3311 47.116 63.5471 47.292C63.7711 47.468 63.9511 47.684 64.0871 47.94C64.2311 48.196 64.3031 48.508 64.3031 48.876ZM66.2739 43.08H67.9899V43.2H67.9299C67.8739 43.2 67.8219 43.224 67.7739 43.272C67.7259 43.312 67.6859 43.364 67.6539 43.428C67.6219 43.484 67.5939 43.552 67.5699 43.632C67.5539 43.704 67.5459 43.768 67.5459 43.824V50.22C67.5459 50.284 67.5539 50.356 67.5699 50.436C67.5859 50.508 67.6099 50.576 67.6419 50.64C67.6819 50.704 67.7219 50.76 67.7619 50.808C67.8099 50.856 67.8659 50.88 67.9299 50.88H67.9899V51H66.2739V50.88H66.3339C66.3979 50.88 66.4539 50.86 66.5019 50.82C66.5499 50.772 66.5899 50.716 66.6219 50.652C66.6619 50.58 66.6899 50.508 66.7059 50.436C66.7219 50.356 66.7299 50.284 66.7299 50.22V43.824C66.7299 43.768 66.7219 43.704 66.7059 43.632C66.6899 43.56 66.6619 43.492 66.6219 43.428C66.5899 43.364 66.5499 43.312 66.5019 43.272C66.4539 43.224 66.3979 43.2 66.3339 43.2H66.2739V43.08ZM75.2039 46.824H76.9199V46.944H76.8599C76.7959 46.944 76.7399 46.968 76.6919 47.016C76.6439 47.056 76.6039 47.108 76.5719 47.172C76.5399 47.236 76.5119 47.304 76.4879 47.376C76.4719 47.448 76.4639 47.512 76.4639 47.568V50.784C76.3199 50.84 76.1559 50.888 75.9719 50.928C75.7879 50.968 75.5959 51 75.3959 51.024C75.1959 51.056 74.9919 51.08 74.7839 51.096C74.5759 51.112 74.3839 51.12 74.2079 51.12C73.4879 51.12 72.8599 51 72.3239 50.76C71.7879 50.52 71.3439 50.208 70.9919 49.824C70.6399 49.432 70.3759 48.992 70.1999 48.504C70.0319 48.016 69.9479 47.524 69.9479 47.028C69.9479 46.532 70.0319 46.04 70.1999 45.552C70.3759 45.064 70.6399 44.628 70.9919 44.244C71.3519 43.86 71.7999 43.552 72.3359 43.32C72.8799 43.08 73.5239 42.96 74.2679 42.96C74.5479 42.96 74.8079 42.984 75.0479 43.032C75.2879 43.08 75.4999 43.124 75.6839 43.164C75.7879 43.188 75.8759 43.212 75.9479 43.236C76.0279 43.252 76.0959 43.26 76.1519 43.26H76.2599V44.532H76.1399C76.0919 44.284 75.9959 44.084 75.8519 43.932C75.7159 43.78 75.5559 43.664 75.3719 43.584C75.1879 43.504 74.9919 43.452 74.7839 43.428C74.5839 43.396 74.3959 43.38 74.2199 43.38C73.6199 43.38 73.0999 43.488 72.6599 43.704C72.2199 43.912 71.8599 44.184 71.5799 44.52C71.2999 44.856 71.0919 45.236 70.9559 45.66C70.8199 46.076 70.7519 46.492 70.7519 46.908C70.7519 47.372 70.8399 47.832 71.0159 48.288C71.1919 48.736 71.4399 49.14 71.7599 49.5C72.0799 49.852 72.4639 50.14 72.9119 50.364C73.3679 50.58 73.8719 50.688 74.4239 50.688C74.5759 50.688 74.7639 50.672 74.9879 50.64C75.2119 50.6 75.4359 50.516 75.6599 50.388V47.568C75.6599 47.512 75.6519 47.448 75.6359 47.376C75.6199 47.304 75.5919 47.236 75.5519 47.172C75.5199 47.108 75.4799 47.056 75.4319 47.016C75.3839 46.968 75.3279 46.944 75.2639 46.944H75.2039V46.824ZM80.0906 50.88H80.1506V51H78.8186V50.88H78.8786C78.9346 50.88 78.9866 50.856 79.0346 50.808C79.0906 50.76 79.1346 50.704 79.1666 50.64C79.1986 50.576 79.2226 50.508 79.2386 50.436C79.2626 50.356 79.2746 50.284 79.2746 50.22V43.824C79.2746 43.768 79.2666 43.704 79.2506 43.632C79.2426 43.56 79.2226 43.492 79.1906 43.428C79.1586 43.364 79.1146 43.312 79.0586 43.272C79.0026 43.224 78.9346 43.2 78.8546 43.2H78.7946V43.08H80.0066L84.3626 49.944V43.824C84.3626 43.768 84.3506 43.704 84.3266 43.632C84.3106 43.56 84.2826 43.492 84.2426 43.428C84.2106 43.364 84.1706 43.312 84.1226 43.272C84.0746 43.224 84.0186 43.2 83.9546 43.2H83.8946V43.08H85.2386V43.2H85.1786C85.1146 43.2 85.0586 43.224 85.0106 43.272C84.9626 43.312 84.9186 43.364 84.8786 43.428C84.8466 43.492 84.8226 43.56 84.8066 43.632C84.7906 43.704 84.7826 43.768 84.7826 43.824V51H84.0386L79.6946 44.112V50.22C79.6946 50.284 79.7026 50.356 79.7186 50.436C79.7346 50.508 79.7586 50.576 79.7906 50.64C79.8306 50.704 79.8746 50.76 79.9226 50.808C79.9706 50.856 80.0266 50.88 80.0906 50.88Z" fill="#706A66"/>
<path d="M37.7901 10.3758L37.6401 10.3752C37.5001 10.3746 37.3699 10.434 37.2494 10.5535C37.1288 10.673 37.0282 10.8125 36.9476 10.9722C36.8469 11.1318 36.7761 11.3015 36.7354 11.4813C36.6945 11.6811 36.6737 11.861 36.6731 12.021L36.6044 28.0109C36.6038 28.1509 36.6231 28.311 36.6624 28.4911C36.7016 28.6713 36.7609 28.8416 36.8402 29.0019C36.9195 29.1622 37.0189 29.2927 37.1385 29.3932C37.258 29.5137 37.3977 29.5743 37.5577 29.575L37.7077 29.5756L37.7064 29.8756L31.9165 29.8508C30.3365 29.844 28.9177 29.5579 27.6601 28.9925C26.4025 28.4471 25.3457 27.7026 24.4897 26.7589C23.6136 25.8351 22.9482 24.7722 22.4934 23.5703C22.0385 22.3683 21.8139 21.1173 21.8195 19.8174C21.8247 18.5974 22.0498 17.3983 22.4949 16.2202C22.9399 15.0621 23.6043 14.025 24.4883 13.1087C25.3722 12.1925 26.4754 11.4473 27.7979 10.8729C29.1203 10.3186 30.6515 10.0452 32.3915 10.0526L37.7914 10.0758L37.7901 10.3758ZM23.8614 19.3761C23.8559 20.6561 24.0807 21.8671 24.5358 23.009C24.9909 24.151 25.6366 25.1438 26.473 25.9874C27.2893 26.8509 28.2664 27.5351 29.4042 28.04C30.5221 28.5448 31.741 28.8 33.061 28.8057L34.591 28.8122L34.6669 11.1124L33.077 11.1056C31.997 11.101 30.9163 11.2563 29.8349 11.5717C28.7335 11.907 27.7413 12.4127 26.8584 13.0889C25.9754 13.7851 25.2617 14.6521 24.7172 15.6898C24.1527 16.7273 23.8675 17.9561 23.8614 19.3761Z" fill="#706A66"/>
</svg>
